<svg aria-hidden="true" style="position: absolute; width: 0; height: 0; overflow: hidden;" version="1.1"
    xmlns="http://www.w3.org/2000/svg" xmlns:xlink="http://www.w3.org/1999/xlink">
    <defs>
        <!-- кнопка закриття мобільного меню -->
        <symbol id="mobile-menu-btn-close" viewBox="0 0 30 32">
            <path
                d="M16.22 14.83l4.929-4.925c0.156-0.177 0.252-0.412 0.252-0.669 0-0.56-0.454-1.013-1.013-1.013-0.257 0-0.492 0.096-0.67 0.254l0.001-0.001-4.928 4.875-4.96-4.957c-0.175-0.146-0.402-0.235-0.65-0.235-0.56 0-1.014 0.454-1.014 1.014 0 0.248 0.089 0.474 0.236 0.65l-0.001-0.002 4.949 5.007-4.848 4.783c-0.211 0.187-0.344 0.458-0.344 0.761 0 0.56 0.454 1.013 1.013 1.013 0.303 0 0.575-0.133 0.76-0.343l0.001-0.001 4.837-4.833 4.808 4.803c0.175 0.146 0.402 0.235 0.65 0.235 0.56 0 1.014-0.454 1.014-1.014 0-0.248-0.089-0.474-0.236-0.651l0.001 0.002-4.787-4.752z">
            </path>
        </symbol>
        <!-- кнопка виклику мобільного меню(бургер меню) -->
        <symbol id="toggle-menu" viewBox="0 0 32 32">
            <path
                d="M2.668 8.004c0-0.737 0.597-1.334 1.334-1.334v0h24.013c0.737 0 1.334 0.597 1.334 1.334s-0.597 1.334-1.334 1.334h-24.013c-0.737 0-1.334-0.597-1.334-1.334v0zM2.668 16.051c0.001-0.736 0.598-1.333 1.334-1.333 0 0 0 0 0 0h24.013c0.012-0 0.025-0.001 0.039-0.001 0.737 0 1.334 0.597 1.334 1.334s-0.597 1.334-1.334 1.334c-0.014 0-0.027-0-0.041-0.001l0.002 0h-24.013c-0.737 0-1.334-0.597-1.334-1.334v0zM4.002 22.765c-0.72 0.022-1.295 0.611-1.295 1.334s0.575 1.312 1.293 1.334l0.002 0h24.013c0.012 0 0.025 0.001 0.039 0.001 0.737 0 1.334-0.597 1.334-1.334s-0.597-1.334-1.334-1.334c-0.014 0-0.027 0-0.041 0.001l0.002-0h-24.013z">
            </path>
        </symbol>
        <!-- логотип -->
        <symbol id="logo" viewBox="0 0 41 32">
            <path fill="#ffe550" style="fill: var(--color1, #ffe550)"
                d="M14.143 6.46c1.010-1.982 3.836-1.982 4.846 0l1.28 2.51c0.395 0.763 1.119 1.309 1.98 1.45l0.016 0.002 2.772 0.442c2.196 0.35 3.070 3.049 1.497 4.625l-1.978 1.983c-0.493 0.494-0.798 1.177-0.798 1.93 0 0.15 0.012 0.298 0.035 0.442l-0.002-0.016 0.437 2.773c0.346 2.2-1.94 3.868-3.92 2.858l-2.511-1.278c-0.358-0.186-0.783-0.296-1.232-0.296s-0.874 0.109-1.247 0.303l0.015-0.007-2.511 1.278c-1.98 1.009-4.267-0.658-3.92-2.858l0.437-2.773c0.021-0.128 0.033-0.275 0.033-0.426 0-0.753-0.305-1.436-0.798-1.93l0 0-1.978-1.983c-1.572-1.576-0.698-4.276 1.497-4.625l2.772-0.441c0.877-0.144 1.601-0.689 1.989-1.438l0.007-0.015 1.28-2.51z">
            </path>
            <path fill="#2c2c2c" style="fill: var(--color2, #2c2c2c)"
                d="M1.116 20.362l-0.021 0.005c0.002 0.074-0.001 0.374-0.011 0.9-0.003 0.524-0.004 0.868-0.002 1.032 0 0.157-0.004 0.285-0.010 0.384l0.001 0.336c-0 0.104-0.007 0.207-0.021 0.308l0.001-0.012-0.018 0.206c-0.014 0.13-0.042 0.201-0.084 0.211-0.092 0.022-0.235-0.049-0.431-0.212-0.197-0.17-0.31-0.319-0.34-0.447s-0.038-1.060-0.023-2.798c0.021-1.74-0.026-2.884-0.14-3.433-0.011-0.035-0.017-0.075-0.017-0.116 0-0.056 0.011-0.11 0.031-0.158l-0.001 0.003c0.036-0.166 0.219-0.321 0.55-0.467 0.338-0.147 0.843-0.3 1.514-0.459 0.678-0.16 1.216-0.25 1.614-0.27 0.405-0.021 0.623 0.032 0.652 0.16 0.021 0.085-0.025 0.159-0.137 0.223s-0.211 0.117-0.298 0.16c0.121-0.039 0.006 0.008-0.109 0.054l-0.239 0.085c-0.145 0.049-0.279 0.096-0.403 0.14-0.126 0.037-0.288 0.090-0.488 0.16-0.193 0.068-0.372 0.133-0.536 0.194-0.166 0.054-0.39 0.133-0.671 0.237s-0.463 0.17-0.546 0.197c0.012 0.020 0.023 0.050 0.033 0.093 0.079 0.332 0.122 1.13 0.129 2.392 0.443-0.082 0.911-0.204 1.402-0.366 0.498-0.162 0.804-0.257 0.917-0.284 0.269-0.063 0.416-0.039 0.443 0.074 0.052 0.22-0.212 0.476-0.791 0.77-0.572 0.293-1.222 0.525-1.95 0.697zM8.033 18.411c-0.058-0.247-0.153-0.465-0.282-0.66l0.005 0.008c-0.13-0.201-0.281-0.334-0.452-0.398-0.455 0.25-0.786 0.729-0.992 1.435-0.201 0.698-0.236 1.319-0.108 1.865s0.343 0.854 0.644 0.924c0.485-0.219 0.834-0.668 1.046-1.346 0.218-0.687 0.265-1.297 0.139-1.828zM5.269 19.166c0.117-0.611 0.33-1.14 0.642-1.588 0.318-0.457 0.684-0.734 1.102-0.833 0.423-0.1 0.819-0.003 1.187 0.291 0.366 0.287 0.61 0.689 0.732 1.206 0.121 0.51 0.121 1.063 0.001 1.66-0.122 0.602-0.372 1.131-0.72 1.58l0.006-0.009c-0.349 0.449-0.767 0.731-1.254 0.846-0.361 0.086-0.7-0.010-1.019-0.286s-0.538-0.669-0.658-1.179c-0.123-0.517-0.129-1.080-0.019-1.689zM12.833 17.274c-0.058-0.247-0.153-0.465-0.282-0.66l0.005 0.008c-0.129-0.201-0.281-0.334-0.452-0.398-0.455 0.25-0.786 0.728-0.992 1.434-0.201 0.698-0.236 1.32-0.107 1.865 0.129 0.546 0.343 0.854 0.643 0.925 0.486-0.22 0.834-0.668 1.047-1.347 0.218-0.687 0.265-1.296 0.138-1.828zM10.070 18.029c0.117-0.611 0.331-1.14 0.642-1.588 0.318-0.457 0.684-0.734 1.102-0.833 0.423-0.1 0.82-0.004 1.188 0.291 0.366 0.287 0.61 0.689 0.732 1.206 0.121 0.51 0.121 1.063 0.001 1.66-0.122 0.601-0.372 1.131-0.72 1.579l0.006-0.009c-0.349 0.449-0.767 0.731-1.254 0.847-0.361 0.085-0.7-0.010-1.018-0.286s-0.538-0.669-0.659-1.178c-0.122-0.517-0.129-1.080-0.019-1.689zM17.839 11.042c0.113-0.027 0.276 0.047 0.489 0.221 0.218 0.165 0.349 0.34 0.392 0.524s0.079 0.729 0.107 1.634c0.026 0.898 0.031 1.836 0.015 2.812-0.020 2.188-0.111 3.301-0.273 3.34-0.098 0.023-0.223-0.011-0.371-0.103-0.143-0.101-0.226-0.197-0.247-0.289s-0.041-0.282-0.057-0.57c-0.524 0.872-1.045 1.369-1.561 1.491-0.311 0.074-0.626-0.001-0.948-0.225-0.314-0.225-0.508-0.489-0.579-0.794-0.105-0.439-0.111-0.986-0.020-1.644 0.105-0.711 0.329-1.351 0.651-1.929l-0.015 0.028c0.327-0.601 0.742-0.961 1.243-1.079 0.502-0.119 0.923 0.099 1.263 0.654 0.006-1.586-0.077-2.818-0.247-3.698-0.050-0.212 0.002-0.337 0.158-0.374zM17.907 16.533c-0.091-0.382-0.234-0.689-0.431-0.919-0.188-0.232-0.375-0.326-0.559-0.282-0.303 0.072-0.57 0.333-0.799 0.783-0.221 0.428-0.381 0.926-0.454 1.452l-0.003 0.024c-0.070 0.525-0.063 0.964 0.021 1.318 0.025 0.122 0.103 0.221 0.208 0.275l0.002 0.001c0.067 0.035 0.145 0.055 0.229 0.055 0.045 0 0.089-0.006 0.13-0.017l-0.004 0.001c0.276-0.065 0.599-0.351 0.972-0.858 0.379-0.509 0.611-1.057 0.696-1.646l0.002-0.135-0.012-0.052zM24.671 15.896c0.137 0.581-0.009 1.131-0.438 1.652-0.431 0.513-0.985 0.849-1.663 1.010-0.671 0.159-1.266 0.117-1.786-0.127-0.522-0.25-0.819-0.532-0.892-0.843-0.051-0.212-0.012-0.334 0.115-0.364 0.113-0.027 0.375 0.090 0.788 0.352 0.156 0.090 0.352 0.163 0.589 0.219 0.244 0.055 0.486 0.054 0.726-0.004 0.495-0.117 0.902-0.348 1.223-0.693 0.329-0.347 0.457-0.669 0.387-0.966-0.045-0.191-0.23-0.406-0.554-0.643-0.302-0.223-0.645-0.435-1.004-0.619l-0.042-0.020c-0.399-0.215-0.739-0.435-1.061-0.677l0.021 0.015c-0.326-0.244-0.511-0.455-0.553-0.632-0.026-0.112-0.041-0.24-0.041-0.372 0-0.076 0.005-0.151 0.014-0.224l-0.001 0.009c0.024-0.215 0.068-0.378 0.13-0.49 0.203-0.37 0.564-0.751 1.083-1.143 0.526-0.394 0.987-0.638 1.383-0.731 0.056-0.015 0.121-0.024 0.188-0.024 0.14 0 0.27 0.038 0.382 0.105l-0.003-0.002c0.174 0.101 0.278 0.226 0.313 0.374 0.017 0.071-0.044 0.145-0.182 0.223s-0.351 0.188-0.638 0.33c-0.285 0.134-0.528 0.274-0.757 0.433l0.017-0.011c-0.738 0.505-1.074 0.901-1.005 1.191 0.037 0.156 0.553 0.494 1.548 1.013 0.414 0.221 0.77 0.474 1.091 0.767l-0.004-0.004c0.346 0.3 0.555 0.598 0.625 0.895zM27.104 16.431c0.032 0.135 0.126 0.183 0.281 0.147 0.268-0.064 0.575-0.215 0.922-0.454 0.351-0.247 0.548-0.377 0.591-0.386 0.127-0.030 0.207 0.022 0.239 0.156 0.048 0.206-0.108 0.493-0.468 0.862-0.353 0.368-0.703 0.593-1.049 0.674-0.339 0.080-0.644 0.055-0.913-0.075-0.271-0.138-0.43-0.306-0.477-0.505-0.047-0.198-0.064-0.459-0.051-0.783 0.011-0.332 0.035-0.767 0.071-1.307 0.042-0.548 0.070-1 0.082-1.354-0.314 0.156-0.527 0.248-0.64 0.274s-0.239-0.003-0.379-0.090c-0.134-0.095-0.214-0.196-0.239-0.302-0.040-0.17 0.381-0.442 1.262-0.815-0.012-0.618-0.071-1.153-0.178-1.606-0.050-0.212-0.005-0.335 0.137-0.369 0.12-0.028 0.287 0.015 0.5 0.129 0.212 0.106 0.34 0.255 0.385 0.447s0.065 0.542 0.058 1.052c0.394-0.131 0.711-0.225 0.951-0.281 0.425-0.101 0.658-0.058 0.702 0.126 0.025 0.106-0.071 0.222-0.287 0.348-0.209 0.124-0.663 0.348-1.363 0.67-0.016 0.594-0.052 1.28-0.107 2.055-0.057 0.769-0.067 1.231-0.030 1.386zM31.839 10.869c0.318-0.075 0.649 0.018 0.995 0.281 0.343 0.255 0.546 0.513 0.608 0.775 0.060 0.255 0.034 0.538-0.079 0.849 0.11 0.086 0.174 0.167 0.193 0.246 0.047 0.198 0.081 0.549 0.103 1.052 0.030 0.502 0.051 0.829 0.065 0.983 0.021 0.152 0.036 0.276 0.043 0.371 0.006 0.089 0.009 0.177 0.007 0.268 0.014 0.183-0.029 0.287-0.128 0.311-0.127 0.030-0.258-0.055-0.396-0.254-0.131-0.208-0.246-0.488-0.343-0.838-0.44 0.949-0.928 1.487-1.465 1.614-0.325 0.077-0.679 0.015-1.062-0.186-0.378-0.209-0.602-0.463-0.672-0.761-0.1-0.425-0.069-0.986 0.095-1.682 0.173-0.744 0.452-1.4 0.826-1.99l-0.015 0.026c0.379-0.606 0.788-0.96 1.225-1.065zM32.768 12.623c-0.156-0.658-0.364-0.957-0.626-0.895-0.275 0.065-0.55 0.34-0.823 0.823-0.261 0.446-0.474 0.962-0.61 1.508l-0.009 0.041c-0.137 0.556-0.171 0.979-0.103 1.27 0.027 0.119 0.109 0.215 0.217 0.261l0.002 0.001c0.115 0.047 0.24 0.055 0.374 0.023 0.332-0.079 0.654-0.39 0.965-0.935 0.31-0.551 0.47-1.169 0.48-1.852-0.004-0.111 0.041-0.189 0.135-0.234l-0.002-0.010z">
            </path>
            <path fill="#bbf330" style="fill: var(--color3, #bbf330)"
                d="M30.759 19.978c-0.303 0.075-0.542 0.306-0.641 0.602-1.906 5.65-7.244 9.719-13.535 9.719-3.815 0-7.28-1.497-9.841-3.934-0.164-0.159-0.388-0.257-0.635-0.257-0.075 0-0.147 0.009-0.217 0.026l0.006-0.001c-0.639 0.158-0.88 0.934-0.406 1.392 2.861 2.772 6.767 4.481 11.072 4.481 0.007 0 0.014 0 0.021 0h-0.001c7.078 0 13.081-4.606 15.182-10.986 0.206-0.626-0.368-1.199-1.006-1.041zM1.866 14.155c0.344-0.092 0.603-0.371 0.664-0.719l0.001-0.005c1.211-6.664 7.039-11.719 14.051-11.719 4.559 0 8.617 2.137 11.232 5.464 0.219 0.279 0.578 0.414 0.923 0.329 0.583-0.145 0.847-0.825 0.478-1.301-2.924-3.771-7.495-6.198-12.634-6.198-7.881 0-14.43 5.711-15.742 13.225-0.103 0.592 0.445 1.070 1.028 0.926zM40.615 5.337c-3.777 7.241-5.435 2.465-10.753 5.27 0.532-8.405 6.163-3.291 10.753-5.27z">
            </path>
        </symbol>




        <!-- кнопки секції герой+offerings -->


    <symbol id="icon-hero-svg1" viewBox="0 0 32 32">
      <path fill="#7eb101" style="fill:var(--color1, #7eb101)" d="m7.23 13.63 3.54 1.5a31.56 31.56 0 0 1 2.73-4.6L10.87 10l-3.64 3.63zm5.14 2.7 4.43 4.44c1.27-.58 2.46-1.24 3.57-1.97s2-1.45 2.7-2.13c1.8-1.8 3.12-3.65 3.96-5.54s1.3-4.02 1.37-6.4c-2.38.07-4.51.52-6.4 1.37a18.84 18.84 0 0 0-7.67 6.67 26.24 26.24 0 0 0-1.96 3.56zm7.63-3.2c-.44-.44-.67-1-.67-1.65s.23-1.2.67-1.65 1-.66 1.65-.66c.66 0 1.2.22 1.65.66s.67 1 .67 1.65c0 .66-.23 1.2-.67 1.65s-1 .67-1.65.67-1.2-.22-1.65-.67zm-.5 12.77 3.63-3.63-.53-2.64c-.71.52-1.46 1-2.23 1.45s-1.57.89-2.37 1.29l1.5 3.53zM30.37 2.77c.2 3.02-.18 5.77-1.14 8.26s-2.53 4.84-4.73 7.04l-.13.13.73 3.67c.07.33.05.65-.05.96s-.27.6-.52.84l-5.7 5.73L16 22.8l-5.67-5.67-6.6-2.83 5.74-5.7c.24-.24.52-.42.83-.52s.63-.11.97-.05l3.66.74.07-.05a19.1 19.1 0 0 1 15.37-5.95zm-24.4 18.4c.77-.78 1.72-1.18 2.85-1.19s2.07.38 2.85 1.15c.77.78 1.16 1.73 1.15 2.85s-.4 2.08-1.19 2.85c-.57.58-1.47 1.06-2.68 1.44S5.92 29 3.5 29.33c.33-2.42.68-4.24 1.05-5.46s.84-2.12 1.42-2.7zm1.4 1.43c-.31.33-.6.86-.84 1.57s-.45 1.62-.63 2.73c1.11-.18 2.02-.39 2.73-.63s1.24-.52 1.57-.84c.42-.37.64-.85.65-1.41s-.18-1.06-.58-1.49a2.02 2.02 0 0 0-2.9.07z"/>
    </symbol>
    
    <symbol id="icon-hero-svg2" viewBox="0 0 32 32">
      <path fill="#7eb101" style="fill:var(--color1, #7eb101)" d="M15.5 1.33c2.02 0 3.75.7 5.18 2.12s2.15 3.13 2.15 5.15a7.34 7.34 0 0 1-2.86 5.87h-1.14V12.8a5.36 5.36 0 0 0 .43-7.93 5.2 5.2 0 0 0-3.76-1.54c-1.47 0-2.72.51-3.77 1.54s-1.57 2.26-1.57 3.73a5.41 5.41 0 0 0 2 4.2v2.4a7.33 7.33 0 0 1-4-6.6c0-2.02.72-3.74 2.15-5.15s3.17-2.12 5.19-2.12zm-1.27 28a2.75 2.75 0 0 1-1.93-.8l-6.87-6.86 1.87-1.94c.31-.3.66-.55 1.05-.71s.8-.2 1.22-.09l2.6.6V8.67c0-.94.32-1.73.96-2.37s1.44-.97 2.37-.97c.93 0 1.72.32 2.37.97s.97 1.43.97 2.37v5.73h.86c.11 0 .21.02.3.07l.3.13 4.94 2.4c.53.24.92.64 1.18 1.18s.33 1.1.22 1.69l-1.2 7.26c-.12.65-.43 1.17-.94 1.59s-1.09.61-1.73.61h-8.53zm-.26-2h9.36l1.44-8.3-6.1-3.03h-1.84V8.67c0-.4-.12-.73-.36-.97s-.57-.37-.97-.37-.72.12-.97.37a1.3 1.3 0 0 0-.36.97v13.3l-5.14-1.1-.76.76 5.7 5.7zm9.36 0z"/>
    </symbol>

    
    <symbol id="icon-chevron-down" viewBox="0 0 32 32">
      <path d="M21.62 15.2c.33.32.33.86 0 1.19l-8.59 8.59a.84.84 0 0 1-1.19 0l-.4-.4a.84.84 0 0 1 0-1.19l7.6-7.6-7.6-7.6a.84.84 0 0 1 0-1.19l.4-.4a.84.84 0 0 1 1.2 0l8.58 8.6z"/>
    </symbol>

        
<!--  -->

   </defs>

</svg>