<svg aria-hidden="true" style="position:absolute;width:0;height:0;overflow:hidden" xmlns="http://www.w3.org/2000/svg">
  <defs>
    <symbol id="icon-hero-svg1" viewBox="0 0 32 32">
      <path fill="#7eb101" style="fill:var(--color1, #7eb101)" d="m7.23 13.63 3.54 1.5a31.56 31.56 0 0 1 2.73-4.6L10.87 10l-3.64 3.63zm5.14 2.7 4.43 4.44c1.27-.58 2.46-1.24 3.57-1.97s2-1.45 2.7-2.13c1.8-1.8 3.12-3.65 3.96-5.54s1.3-4.02 1.37-6.4c-2.38.07-4.51.52-6.4 1.37a18.84 18.84 0 0 0-7.67 6.67 26.24 26.24 0 0 0-1.96 3.56zm7.63-3.2c-.44-.44-.67-1-.67-1.65s.23-1.2.67-1.65 1-.66 1.65-.66c.66 0 1.2.22 1.65.66s.67 1 .67 1.65c0 .66-.23 1.2-.67 1.65s-1 .67-1.65.67-1.2-.22-1.65-.67zm-.5 12.77 3.63-3.63-.53-2.64c-.71.52-1.46 1-2.23 1.45s-1.57.89-2.37 1.29l1.5 3.53zM30.37 2.77c.2 3.02-.18 5.77-1.14 8.26s-2.53 4.84-4.73 7.04l-.13.13.73 3.67c.07.33.05.65-.05.96s-.27.6-.52.84l-5.7 5.73L16 22.8l-5.67-5.67-6.6-2.83 5.74-5.7c.24-.24.52-.42.83-.52s.63-.11.97-.05l3.66.74.07-.05a19.1 19.1 0 0 1 15.37-5.95zm-24.4 18.4c.77-.78 1.72-1.18 2.85-1.19s2.07.38 2.85 1.15c.77.78 1.16 1.73 1.15 2.85s-.4 2.08-1.19 2.85c-.57.58-1.47 1.06-2.68 1.44S5.92 29 3.5 29.33c.33-2.42.68-4.24 1.05-5.46s.84-2.12 1.42-2.7zm1.4 1.43c-.31.33-.6.86-.84 1.57s-.45 1.62-.63 2.73c1.11-.18 2.02-.39 2.73-.63s1.24-.52 1.57-.84c.42-.37.64-.85.65-1.41s-.18-1.06-.58-1.49a2.02 2.02 0 0 0-2.9.07z"/>
    </symbol>
    <symbol id="icon-hero-svg2" viewBox="0 0 32 32">
      <path fill="#7eb101" style="fill:var(--color1, #7eb101)" d="M15.5 1.33c2.02 0 3.75.7 5.18 2.12s2.15 3.13 2.15 5.15a7.34 7.34 0 0 1-2.86 5.87h-1.14V12.8a5.36 5.36 0 0 0 .43-7.93 5.2 5.2 0 0 0-3.76-1.54c-1.47 0-2.72.51-3.77 1.54s-1.57 2.26-1.57 3.73a5.41 5.41 0 0 0 2 4.2v2.4a7.33 7.33 0 0 1-4-6.6c0-2.02.72-3.74 2.15-5.15s3.17-2.12 5.19-2.12zm-1.27 28a2.75 2.75 0 0 1-1.93-.8l-6.87-6.86 1.87-1.94c.31-.3.66-.55 1.05-.71s.8-.2 1.22-.09l2.6.6V8.67c0-.94.32-1.73.96-2.37s1.44-.97 2.37-.97c.93 0 1.72.32 2.37.97s.97 1.43.97 2.37v5.73h.86c.11 0 .21.02.3.07l.3.13 4.94 2.4c.53.24.92.64 1.18 1.18s.33 1.1.22 1.69l-1.2 7.26c-.12.65-.43 1.17-.94 1.59s-1.09.61-1.73.61h-8.53zm-.26-2h9.36l1.44-8.3-6.1-3.03h-1.84V8.67c0-.4-.12-.73-.36-.97s-.57-.37-.97-.37-.72.12-.97.37a1.3 1.3 0 0 0-.36.97v13.3l-5.14-1.1-.76.76 5.7 5.7zm9.36 0z"/>
    </symbol>

    
    <symbol id="icon-chevron-down" viewBox="0 0 32 32">
      <path d="M21.62 15.2c.33.32.33.86 0 1.19l-8.59 8.59a.84.84 0 0 1-1.19 0l-.4-.4a.84.84 0 0 1 0-1.19l7.6-7.6-7.6-7.6a.84.84 0 0 1 0-1.19l.4-.4a.84.84 0 0 1 1.2 0l8.58 8.6z"/>
    </symbol>
  <
</svg>
  </defs>
</svg>